<svg xmlns="http://www.w3.org/2000/svg" viewBox="0 0 360.81 413.59"><defs><style>.cls-1{font-size:61.08px;font-family:MightypeScript, Mightype Script;}.cls-1,.cls-2{fill:#fff;}</style></defs><title>Asset 1</title><g id="Layer_2" data-name="Layer 2"><g id="Layer_2-2" data-name="Layer 2"><text class="cls-1" transform="matrix(0.76, -0.65, 0.65, 0.76, 55.3, 102.79)">e</text><text class="cls-1" transform="translate(71.23 89.22) rotate(-34.12)">v</text><text class="cls-1" transform="translate(86.49 78.76) rotate(-28.06)">e</text><text class="cls-1" transform="matrix(0.93, -0.37, 0.37, 0.93, 104.71, 69.03)">r</text><text class="cls-1" transform="translate(123.47 61.83) rotate(-16.42)"> </text><text class="cls-1" transform="matrix(0.98, -0.21, 0.21, 0.98, 134.39, 58.49)">t</text><text class="cls-1" transform="translate(149.48 54.94) rotate(-5.69)">w</text><text class="cls-1" transform="translate(173.87 52.53) rotate(1.47)">o</text><text class="cls-1" transform="translate(195.47 53.28) rotate(6.65)"> </text><text class="cls-1" transform="translate(206.77 54.4) rotate(11.41)">f</text><text class="cls-1" transform="translate(223.83 57.87) rotate(16.15)">i</text><text class="cls-1" transform="translate(236.76 61.52) rotate(20.87)">l</text><text class="cls-1" transform="translate(248.91 65.34) rotate(27.66)">m</text><text class="cls-1" transform="matrix(0.81, 0.59, -0.59, 0.81, 278.2, 81.21)">s</text><path class="cls-2" d="M74.83,366.19l3.44-1.85q5.22-2.8,10.33-5.76c3.43-1.95,6.79-4,10.1-6.11,6.58-4.26,13-8.87,18.3-14.52a34.08,34.08,0,0,0,6.49-9.4,16.15,16.15,0,0,0,1.11-10.93,17,17,0,0,0-2.42-5.11,34.17,34.17,0,0,0-3.85-4.4L116.22,306l-2-2.23c-1.42-1.44-2.68-3-4-4.51a110.85,110.85,0,0,1-7.52-9.7,50.72,50.72,0,0,1-5.74-11.16,37.34,37.34,0,0,1-2.3-12.66A34.91,34.91,0,0,1,97,253a45,45,0,0,1,2.7-5.74c.51-.92,1-1.82,1.61-2.69s1.09-1.76,1.67-2.61c1.17-1.69,2.31-3.38,3.52-5l3.47-4.9.15-.2a66.94,66.94,0,0,1-8-10.58,40.76,40.76,0,0,1-5.46-13.86,23.25,23.25,0,0,1-.06-7.9A17.68,17.68,0,0,1,99.89,192a19.25,19.25,0,0,1,2.94-3.06,19.74,19.74,0,0,1,3.53-2.2,17.85,17.85,0,0,1,8.18-2,18.34,18.34,0,0,1,8.21,2.1,29.88,29.88,0,0,1,6.48,4.6,66.55,66.55,0,0,1,9.52,11.49c3.05,4.57,5.76,9.26,8.32,14q7.29-7.62,15.08-14.76a283.9,283.9,0,0,1,22-18.28,187.63,187.63,0,0,1,24.28-15.55,105.7,105.7,0,0,1,13.36-6,56.51,56.51,0,0,1,14.74-3.41,32.28,32.28,0,0,1,8.05.38,22,22,0,0,1,8,3.15,14.8,14.8,0,0,1,5.92,7.39,19.72,19.72,0,0,1,.88,8.83,37.61,37.61,0,0,1-1.81,7.78c-.59,1.75-1.27,3.45-2,5.1-1.29,6-2.37,12.13-3.33,18.22q-1.78,11.61-2.87,23.28T248,256.39c-.2,7.79-.15,15.58.08,23.36h0v3.05l-2.74-.42c-1.42-.23-2.87-.42-4.32-.6-.62,6.48-3.07,37.59.12,96.69q3.6,1.38,7.24,2.66,5,1.74,10,3.29A170,170,0,1,0,74.83,366.19ZM201.62,111.74a26.87,26.87,0,0,1,3.95-8.36,18.19,18.19,0,0,1,1.57-1.86c.28-.3.62-.56.94-.84a6.47,6.47,0,0,1,1-.78,11.33,11.33,0,0,1,5-1.89,11.59,11.59,0,0,1,5.36.86,7.68,7.68,0,0,1,1.19.57c.37.22.78.41,1.13.66a18.13,18.13,0,0,1,2,1.56,27,27,0,0,1,5.73,7.71,42.23,42.23,0,0,1,3.26,8.71A50.91,50.91,0,0,1,234,136.37a42.8,42.8,0,0,1-2.09,9.06,26.85,26.85,0,0,1-4.67,8.4,16.77,16.77,0,0,1-1.77,1.81,11.92,11.92,0,0,1-1,.8,7.78,7.78,0,0,1-1.1.73,11.6,11.6,0,0,1-5.19,1.56,11.31,11.31,0,0,1-5.19-1.22,6.69,6.69,0,0,1-1.11-.64c-.35-.24-.72-.45-1-.71a20.27,20.27,0,0,1-1.81-1.64,27,27,0,0,1-5-7.76,55,55,0,0,1-2.32-35Zm-99.34,31.68a23.24,23.24,0,0,1,2-7.64,12.75,12.75,0,0,1,2.41-3.5,9.29,9.29,0,0,1,4-2.32,9.56,9.56,0,0,1,4.7.18,13.58,13.58,0,0,1,3.9,2,24.2,24.2,0,0,1,5.6,5.94,41,41,0,0,1,3.82,6.95,55.93,55.93,0,0,1,2.52,7.46,37.23,37.23,0,0,1,.93,7.82,40.73,40.73,0,0,1-.58,7.93A24.81,24.81,0,0,1,129,176a13.4,13.4,0,0,1-2.74,3.48,9.63,9.63,0,0,1-4.26,2.15,9.41,9.41,0,0,1-4.68-.45,12.9,12.9,0,0,1-3.69-2.2,23.24,23.24,0,0,1-5-6.14,43.63,43.63,0,0,1-5.13-14.32c-.4-2.48-1-5-1.18-7.48A39.12,39.12,0,0,1,102.28,143.42Z"/><path class="cls-2" d="M126,207.37a17.09,17.09,0,0,0,1.32-5.26,7.09,7.09,0,0,0-1.18-4.27,6.28,6.28,0,0,0-.47-.58l-.38-.38a7.59,7.59,0,0,0-2.39-1.48,20.36,20.36,0,0,0-4.88-1.29,16.83,16.83,0,0,0-5-.18,6.29,6.29,0,0,0-1.73.5,2.22,2.22,0,0,0-.87.72,5.79,5.79,0,0,0-.63,3.41,37.14,37.14,0,0,0,2.6,10.46,63.4,63.4,0,0,0,5.27,10.39c.25.4.5.8.76,1.2a94.87,94.87,0,0,0,5.06-8.05A45.46,45.46,0,0,0,126,207.37Z"/><path class="cls-2" d="M107.56,165a37.61,37.61,0,0,0,3.46,6.26,20.35,20.35,0,0,0,4.71,5,9.38,9.38,0,0,0,2.75,1.39,4.55,4.55,0,0,0,4.83-1.29,9.55,9.55,0,0,0,1.63-2.47,20,20,0,0,0,1.61-6.37,36,36,0,0,0,0-6.88c-.21-2.31-.74-4.58-1.1-6.87A48.93,48.93,0,0,0,123.7,147a35.76,35.76,0,0,0-2.86-6.29,19.91,19.91,0,0,0-4.14-5.15,9.15,9.15,0,0,0-2.54-1.6,4.68,4.68,0,0,0-5.06.86,9.58,9.58,0,0,0-1.95,2.45,20.29,20.29,0,0,0-2.23,6.52,37.41,37.41,0,0,0,.29,14.37A51.82,51.82,0,0,0,107.56,165Z"/><path class="cls-2" d="M203.7,137.63a38,38,0,0,0,3,7.83,22.3,22.3,0,0,0,4.81,6.44,7.12,7.12,0,0,0,11.72-1.29,23.27,23.27,0,0,0,3.2-7,50.74,50.74,0,0,0-2.11-31.76,22.73,22.73,0,0,0-4.09-6.49,7.12,7.12,0,0,0-11.79.26,22.24,22.24,0,0,0-3.91,7,37.91,37.91,0,0,0-1.9,8.15,46.35,46.35,0,0,0,1.12,16.81Z"/><path class="cls-2" d="M140.1,218.64c-2.26-4.09-4.58-8.11-7.11-11.92-.56-.86-1.14-1.72-1.73-2.55a38.56,38.56,0,0,1-4.57,10.2c-1.94,3.2-4.09,6.22-6.27,9.18,1.28,1.89,2.63,3.73,4.06,5.5a55.6,55.6,0,0,0,6.09,6.54c3.71-4.55,7.53-9,11.49-13.36C141.41,221,140.76,219.83,140.1,218.64Z"/><path class="cls-2" d="M101.38,206.82a36.08,36.08,0,0,0,4.09,12.65,52.43,52.43,0,0,0,6.66,9.8c1.37-1.82,2.73-3.65,4.06-5.47-.57-.72-1.14-1.45-1.7-2.18a112.81,112.81,0,0,1-6.85-10.25,47.12,47.12,0,0,1-2.89-5.67,24,24,0,0,1-1.82-6.54c-.05-.46-.08-.94-.09-1.43a12.68,12.68,0,0,0-1.09,2.89A18.21,18.21,0,0,0,101.38,206.82Z"/><path class="cls-2" d="M248.19,168.94a14.14,14.14,0,0,0-5.09-2.12,24.08,24.08,0,0,0-6.06-.42,49.13,49.13,0,0,0-12.86,2.69,98.36,98.36,0,0,0-12.6,5.29,182.21,182.21,0,0,0-23.77,14.45,279.57,279.57,0,0,0-22,17.38q-8.38,7.35-16.29,15.26c1.12,2.13,2.22,4.27,3.33,6.39l6.43,12.54c2.15,4.15,4.33,8.26,6.79,12.13a60.34,60.34,0,0,0,3.94,5.56,29.33,29.33,0,0,0,4.62,4.69,13.35,13.35,0,0,0,5.37,2.77,8.58,8.58,0,0,0,1.41.21l.35,0h0l.1,0a22.52,22.52,0,0,0,2.57-1.81c1.1-.86,2.18-1.78,3.24-2.72l-.26-5.63c0-2.15-.12-4.3-.13-6.44,0-4.3,0-8.58.27-12.86s.58-8.55,1.14-12.79a90.27,90.27,0,0,1,2.42-12.57A89.76,89.76,0,0,0,190,223.58c-.13,4.23-.06,8.47.12,12.69s.55,8.45,1,12.64c.22,2.1.5,4.2.75,6.29l.28,1.95c.9-.86,1.78-1.74,2.65-2.63,3.3-3.32,6.46-6.79,9.6-10.28s6.21-7,9.29-10.53,6.14-7,9.17-10.58,6-7.14,8.81-10.8,5.64-7.33,8.22-11.12a116.67,116.67,0,0,0,7-11.61,39,39,0,0,0,4.27-11.95,11.63,11.63,0,0,0-.28-5.17A6.73,6.73,0,0,0,248.19,168.94Z"/><path class="cls-2" d="M137.65,256.18a73.76,73.76,0,0,1,9.51,15.21c1.28,2.7,2.41,5.48,3.46,8.24l3.19,8.18c2.16,5.43,4.42,10.79,6.84,16s4.92,10.4,7.68,15.39a117.92,117.92,0,0,0,20.5,27.26,130.67,130.67,0,0,0,27.68,20.59,181,181,0,0,0,20.58,9.77c-3.07-58.25-.63-89.05,0-95.53l-1.51-.17q-4.95-.51-9.92-.81-10-.63-20-.45,9.91-1.42,20-2.05c3.34-.22,6.7-.36,10.06-.44,2.42-.06,4.82-.06,7.25,0a210.17,210.17,0,0,1-.21-21.15q.25-5.94.74-11.87c.37-4,.78-7.89,1.29-11.82s1.07-7.85,1.71-11.76,1.4-7.79,2.19-11.66c.54-2.58,1.12-5.15,1.72-7.71-1,1.64-2,3.27-3,4.85a202.92,202.92,0,0,1-17.64,22.87,222.87,222.87,0,0,1-20.23,20.31c-3.57,3.17-7.22,6.25-10.88,9.31s-7.35,6.07-11.29,9a26.16,26.16,0,0,1-3.32,2.12c-.17.09-.37.18-.6.28a4.38,4.38,0,0,1-.43.14l-.27.07-.42.06h-.68a4.58,4.58,0,0,1-.53,0A13.48,13.48,0,0,1,179,270a16.11,16.11,0,0,1-3.84-1.45,22.18,22.18,0,0,1-3.34-2.1,54,54,0,0,1-10.16-10.89A197.81,197.81,0,0,1,146.79,231l-2.33-4.37q-8.76,9.18-16.74,19.05A102.53,102.53,0,0,1,137.65,256.18Z"/><path class="cls-2" d="M124.77,243q2.2-2.89,4.49-5.73a66.5,66.5,0,0,1-6.88-6.32c-1.4-1.47-2.75-3-4.07-4.52-1.37,1.83-2.74,3.66-4.06,5.49A97.93,97.93,0,0,0,124.77,243Z"/><path class="cls-2" d="M247.72,383.17a226.31,226.31,0,0,1-32.66-13.39,141.56,141.56,0,0,1-29.63-19.64A107.53,107.53,0,0,1,173,337.2a111.14,111.14,0,0,1-10.13-14.88,119.18,119.18,0,0,1-7.59-16.2c-2.13-5.55-3.92-11.17-5.74-16.75-.91-2.79-1.84-5.55-2.79-8.32s-1.92-5.43-3.06-8.06a70.11,70.11,0,0,0-8.55-14.8,100.44,100.44,0,0,0-11.85-12.6c-2.14-2-4.3-4-6.38-6.13-1.54-1.59-3-3.26-4.45-5l-3,4.48c-1.06,1.67-2.13,3.31-3,5a42.41,42.41,0,0,0-4,10.67,46.66,46.66,0,0,0-1,10.93,52.29,52.29,0,0,0,1.51,10.9,68.76,68.76,0,0,0,3.69,10.79,72.23,72.23,0,0,0,5.69,10.27,83.09,83.09,0,0,0,7.39,9.26l2,2.22c.68.78,1.34,1.58,2,2.42a20.42,20.42,0,0,1,2.87,5.57,17.22,17.22,0,0,1,.81,6.3,21.76,21.76,0,0,1-1.3,6.2,40.32,40.32,0,0,1-6.26,10.75,109.78,109.78,0,0,1-17.54,17.08,205.94,205.94,0,0,1-19.88,14l-.39.24a170.12,170.12,0,0,0,173.91,14.1C253.14,384.88,250.43,384.05,247.72,383.17Z"/></g></g></svg>